<svg xmlns="http://www.w3.org/2000/svg" xmlns:xlink="http://www.w3.org/1999/xlink" width="500" zoomAndPan="magnify" viewBox="0 0 375 374.999991" height="500" preserveAspectRatio="xMidYMid meet" version="1.0"><defs><g/><clipPath id="b93c2ad5ee"><path d="M 23.476562 126.882812 L 351.222656 126.882812 L 351.222656 236.382812 L 23.476562 236.382812 Z M 23.476562 126.882812 " clip-rule="nonzero"/></clipPath><clipPath id="3cbc4caab4"><path d="M 64.332031 224.683594 L 310.667969 224.683594 L 310.667969 248.117188 L 64.332031 248.117188 Z M 64.332031 224.683594 " clip-rule="nonzero"/></clipPath></defs><rect x="-37.5" width="450" fill="#ffffff" y="-37.499999" height="449.999989" fill-opacity="1"/><rect x="-37.5" width="450" fill="#ffffff" y="-37.499999" height="449.999989" fill-opacity="1"/><g clip-path="url(#b93c2ad5ee)"><path stroke-linecap="butt" transform="matrix(0.75, 0, 0, 0.75, 23.47538, 126.883321)" fill="none" stroke-linejoin="miter" d="M 0.00157635 -0.000678357 L 437.381813 -0.000678357 L 437.381813 146.014956 L 0.00157635 146.014956 Z M 0.00157635 -0.000678357 " stroke="#060606" stroke-width="2" stroke-opacity="1" stroke-miterlimit="4"/></g><g fill="#060606" fill-opacity="1"><g transform="translate(79.141684, 213.532793)"><g><path d="M 34.125 -66.40625 C 37.800781 -66.40625 40.925781 -65.882812 43.5 -64.84375 C 46.082031 -63.800781 48.597656 -62.332031 51.046875 -60.4375 C 51.722656 -59.882812 52.304688 -59.609375 52.796875 -59.609375 C 54.023438 -59.609375 54.820312 -61.445312 55.1875 -65.125 L 57.3125 -65.125 C 57.0625 -61.132812 56.9375 -54.082031 56.9375 -43.96875 L 54.828125 -43.96875 C 54.148438 -47.957031 53.535156 -50.820312 52.984375 -52.5625 C 52.429688 -54.3125 51.507812 -55.984375 50.21875 -57.578125 C 48.382812 -59.972656 46.039062 -61.765625 43.1875 -62.953125 C 40.332031 -64.148438 37.25 -64.75 33.9375 -64.75 C 29.957031 -64.75 26.476562 -63.429688 23.5 -60.796875 C 20.53125 -58.160156 18.21875 -54.40625 16.5625 -49.53125 C 14.90625 -44.65625 14.078125 -38.9375 14.078125 -32.375 C 14.078125 -25.695312 14.960938 -19.960938 16.734375 -15.171875 C 18.515625 -10.390625 20.984375 -6.753906 24.140625 -4.265625 C 27.304688 -1.785156 30.878906 -0.546875 34.859375 -0.546875 C 37.929688 -0.546875 40.90625 -1.128906 43.78125 -2.296875 C 46.664062 -3.460938 48.9375 -5.210938 50.59375 -7.546875 C 51.820312 -9.265625 52.710938 -11.101562 53.265625 -13.0625 C 53.816406 -15.019531 54.335938 -18.023438 54.828125 -22.078125 L 56.9375 -22.078125 C 56.9375 -11.523438 57.0625 -4.164062 57.3125 0 L 55.1875 0 C 55.007812 -1.957031 54.75 -3.347656 54.40625 -4.171875 C 54.070312 -5.003906 53.597656 -5.421875 52.984375 -5.421875 C 52.492188 -5.421875 51.847656 -5.175781 51.046875 -4.6875 C 48.285156 -2.726562 45.648438 -1.242188 43.140625 -0.234375 C 40.628906 0.773438 37.59375 1.28125 34.03125 1.28125 C 28.207031 1.28125 23.101562 -0.0351562 18.71875 -2.671875 C 14.332031 -5.304688 10.925781 -9.117188 8.5 -14.109375 C 6.082031 -19.109375 4.875 -25.078125 4.875 -32.015625 C 4.875 -38.753906 6.113281 -44.726562 8.59375 -49.9375 C 11.082031 -55.15625 14.546875 -59.203125 18.984375 -62.078125 C 23.429688 -64.960938 28.476562 -66.40625 34.125 -66.40625 Z M 34.125 -66.40625 "/></g></g></g><g fill="#060606" fill-opacity="1"><g transform="translate(137.554126, 236.999984)"><g><path d="M 14.90625 -34.453125 C 13.070312 -33.953125 12.03125 -34.664062 11.78125 -36.59375 C 11.695312 -37.59375 11.78125 -38.71875 12.03125 -39.96875 C 12.195312 -40.882812 12.238281 -41.46875 12.15625 -41.71875 C 11.988281 -41.71875 11.820312 -41.675781 11.65625 -41.59375 C 11.488281 -41.507812 11.363281 -41.425781 11.28125 -41.34375 C 11.195312 -41.257812 11.09375 -41.15625 10.96875 -41.03125 C 10.84375 -40.90625 10.738281 -40.800781 10.65625 -40.71875 C 8.726562 -39.050781 6.972656 -37.84375 5.390625 -37.09375 C 4.804688 -36.757812 4.222656 -36.460938 3.640625 -36.203125 C 2.796875 -35.953125 2.144531 -36.035156 1.6875 -36.453125 C 1.226562 -36.878906 1.082031 -37.507812 1.25 -38.34375 C 1.25 -38.507812 1.332031 -38.84375 1.5 -39.34375 C 2 -40.507812 2.753906 -41.46875 3.765625 -42.21875 C 5.515625 -43.476562 7.265625 -43.476562 9.015625 -42.21875 L 9.140625 -42.09375 L 9.265625 -42.09375 C 9.859375 -41.675781 10.363281 -41.675781 10.78125 -42.09375 L 13.15625 -44.484375 C 13.570312 -44.816406 13.90625 -44.859375 14.15625 -44.609375 C 14.40625 -44.359375 14.445312 -44.148438 14.28125 -43.984375 C 14.195312 -43.316406 13.988281 -42.3125 13.65625 -40.96875 C 13.238281 -39.382812 13.070312 -37.925781 13.15625 -36.59375 C 13.238281 -35.914062 13.65625 -35.617188 14.40625 -35.703125 C 15.65625 -35.867188 19 -37.25 24.4375 -39.84375 C 24.769531 -39.84375 24.976562 -39.757812 25.0625 -39.59375 C 25.226562 -39.175781 25.019531 -38.800781 24.4375 -38.46875 C 20.09375 -36.289062 16.914062 -34.953125 14.90625 -34.453125 Z M 4.265625 -37.84375 C 5.179688 -38.175781 6.140625 -38.632812 7.140625 -39.21875 C 7.722656 -39.632812 8.054688 -39.96875 8.140625 -40.21875 C 8.222656 -40.382812 8.117188 -40.53125 7.828125 -40.65625 C 7.535156 -40.78125 7.179688 -40.84375 6.765625 -40.84375 C 6.097656 -40.675781 5.597656 -40.507812 5.265625 -40.34375 C 4.265625 -39.59375 3.59375 -38.800781 3.25 -37.96875 C 3.675781 -37.632812 4.015625 -37.59375 4.265625 -37.84375 Z M 4.265625 -37.84375 "/></g></g></g><g fill="#060606" fill-opacity="1"><g transform="translate(160.107569, 236.999984)"><g><path d="M 7.515625 -24.9375 C 5.765625 -25.101562 4.640625 -25.976562 4.140625 -27.5625 C 3.972656 -28.144531 3.890625 -29.148438 3.890625 -30.578125 C 3.972656 -31.328125 4.097656 -32.179688 4.265625 -33.140625 C 4.429688 -34.097656 4.535156 -34.742188 4.578125 -35.078125 C 4.617188 -35.410156 4.617188 -35.785156 4.578125 -36.203125 C 4.535156 -36.628906 4.429688 -36.945312 4.265625 -37.15625 C 4.097656 -37.363281 3.847656 -37.59375 3.515625 -37.84375 C 2.671875 -38.34375 1.914062 -38.96875 1.25 -39.71875 C -0.332031 -41.71875 -0.125 -43.472656 1.875 -44.984375 C 2.539062 -45.398438 3.1875 -45.460938 3.8125 -45.171875 C 4.445312 -44.878906 4.804688 -44.359375 4.890625 -43.609375 C 4.972656 -43.273438 4.929688 -42.6875 4.765625 -41.84375 C 4.765625 -41.757812 4.554688 -41.21875 4.140625 -40.21875 C 3.890625 -39.882812 3.929688 -39.550781 4.265625 -39.21875 C 4.515625 -38.96875 4.722656 -38.800781 4.890625 -38.71875 C 6.304688 -37.632812 6.972656 -36.046875 6.890625 -33.953125 C 6.890625 -33.535156 6.867188 -32.910156 6.828125 -32.078125 C 6.785156 -31.242188 6.765625 -30.617188 6.765625 -30.203125 C 6.765625 -29.691406 6.847656 -29.019531 7.015625 -28.1875 C 7.265625 -27.269531 7.890625 -26.8125 8.890625 -26.8125 C 9.566406 -26.894531 10.363281 -27.144531 11.28125 -27.5625 C 12.863281 -28.226562 14.445312 -29.234375 16.03125 -30.578125 C 16.789062 -31.160156 18.421875 -32.472656 20.921875 -34.515625 C 23.429688 -36.566406 25.0625 -37.882812 25.8125 -38.46875 C 26.476562 -38.96875 27.019531 -39.34375 27.4375 -39.59375 C 27.519531 -39.675781 27.601562 -39.695312 27.6875 -39.65625 C 27.769531 -39.613281 27.8125 -39.550781 27.8125 -39.46875 C 27.976562 -39.300781 28.019531 -39.175781 27.9375 -39.09375 C 27.6875 -38.675781 27.519531 -38.425781 27.4375 -38.34375 C 26.351562 -37.425781 24.328125 -35.773438 21.359375 -33.390625 C 18.398438 -31.015625 16.625 -29.613281 16.03125 -29.1875 C 14.613281 -27.9375 12.78125 -26.769531 10.53125 -25.6875 C 9.6875 -25.1875 8.679688 -24.9375 7.515625 -24.9375 Z M 2.5 -40.84375 L 3 -41.09375 C 3.425781 -41.757812 3.640625 -42.429688 3.640625 -43.109375 C 3.640625 -43.273438 3.507812 -43.484375 3.25 -43.734375 C 3.082031 -43.898438 2.832031 -43.898438 2.5 -43.734375 C 1.582031 -43.054688 1.457031 -42.21875 2.125 -41.21875 Z M 2.5 -40.84375 "/></g></g></g><g fill="#060606" fill-opacity="1"><g transform="translate(185.542839, 236.999984)"><g><path d="M 55.75 -70.171875 C 55.832031 -70.171875 55.875 -70.128906 55.875 -70.046875 C 55.875 -69.960938 55.832031 -69.921875 55.75 -69.921875 L 55.25 -69.421875 C 53.414062 -68.410156 51.75 -67.695312 50.25 -67.28125 C 46.90625 -66.53125 42.976562 -66.15625 38.46875 -66.15625 C 37.382812 -66.15625 33.0625 -66.195312 25.5 -66.28125 C 17.9375 -66.363281 13.238281 -66.40625 11.40625 -66.40625 L 9.140625 -66.40625 C 7.804688 -61.226562 7.097656 -58.429688 7.015625 -58.015625 C 5.015625 -49.660156 3.757812 -40.515625 3.25 -30.578125 C 3.082031 -28.066406 3.253906 -25.726562 3.765625 -23.5625 C 4.097656 -22.050781 4.429688 -21.003906 4.765625 -20.421875 C 5.515625 -18.585938 6.847656 -18.085938 8.765625 -18.921875 C 9.097656 -19.085938 9.601562 -19.421875 10.28125 -19.921875 C 12.363281 -21.335938 14.238281 -23.175781 15.90625 -25.4375 C 17.914062 -28.101562 20.84375 -32.195312 24.6875 -37.71875 C 25.6875 -38.96875 26.351562 -39.632812 26.6875 -39.71875 C 26.769531 -39.382812 26.789062 -39.175781 26.75 -39.09375 C 26.707031 -39.007812 26.5 -38.695312 26.125 -38.15625 C 25.75 -37.613281 25.519531 -37.300781 25.4375 -37.21875 C 22.34375 -32.789062 19.164062 -28.488281 15.90625 -24.3125 C 14.238281 -22.21875 12.570312 -20.503906 10.90625 -19.171875 C 10.238281 -18.585938 9.523438 -18.128906 8.765625 -17.796875 C 7.015625 -16.703125 5.390625 -17.078125 3.890625 -18.921875 C 3.378906 -19.503906 2.914062 -20.378906 2.5 -21.546875 C 1.664062 -24.054688 1.25 -26.773438 1.25 -29.703125 C 1.082031 -36.296875 1.5 -42.679688 2.5 -48.859375 C 3.257812 -54.128906 4.429688 -59.976562 6.015625 -66.40625 C -0.585938 -66.40625 -7.519531 -66.03125 -14.78125 -65.28125 C -18.539062 -64.945312 -21.34375 -64.488281 -23.1875 -63.90625 C -25.1875 -63.15625 -26.394531 -62.359375 -26.8125 -61.515625 C -26.8125 -61.429688 -26.9375 -61.390625 -27.1875 -61.390625 C -27.4375 -61.640625 -27.5625 -61.847656 -27.5625 -62.015625 C -27.644531 -62.523438 -27.4375 -63.03125 -26.9375 -63.53125 C -26.351562 -64.03125 -25.5625 -64.445312 -24.5625 -64.78125 C -22.882812 -65.445312 -20.671875 -65.945312 -17.921875 -66.28125 C -10.148438 -67.195312 -2.753906 -67.65625 4.265625 -67.65625 L 6.265625 -67.65625 C 6.265625 -67.90625 6.328125 -68.28125 6.453125 -68.78125 C 6.578125 -69.289062 6.679688 -69.710938 6.765625 -70.046875 C 8.265625 -75.640625 10.601562 -82.070312 13.78125 -89.34375 C 13.945312 -89.59375 14.15625 -90.007812 14.40625 -90.59375 C 14.65625 -91.175781 14.863281 -91.632812 15.03125 -91.96875 L 15.65625 -93.09375 C 16.15625 -93.925781 16.695312 -94.21875 17.28125 -93.96875 C 17.875 -93.71875 18.046875 -93.132812 17.796875 -92.21875 C 17.710938 -91.632812 17.503906 -90.84375 17.171875 -89.84375 C 16.835938 -88.914062 16.351562 -87.617188 15.71875 -85.953125 C 15.09375 -84.285156 14.65625 -83.160156 14.40625 -82.578125 C 12.570312 -77.804688 11.113281 -73.546875 10.03125 -69.796875 L 9.390625 -67.53125 C 18.410156 -67.363281 25.007812 -67.28125 29.1875 -67.28125 C 30.28125 -67.28125 31.972656 -67.238281 34.265625 -67.15625 C 36.566406 -67.070312 38.300781 -67.03125 39.46875 -67.03125 C 41.894531 -67.03125 44.859375 -67.320312 48.359375 -67.90625 C 50.117188 -68.320312 52.082031 -69.035156 54.25 -70.046875 L 55.375 -70.421875 C 55.457031 -70.421875 55.582031 -70.335938 55.75 -70.171875 Z M 55.75 -70.171875 "/></g></g></g><g fill="#060606" fill-opacity="1"><g transform="translate(209.474539, 236.999984)"><g><path d="M 4.015625 -29.953125 C 1.921875 -30.117188 0.625 -31.285156 0.125 -33.453125 C 0.0390625 -33.953125 0 -34.660156 0 -35.578125 C 0 -38.171875 0.539062 -40.425781 1.625 -42.34375 C 2.289062 -43.351562 2.832031 -44.023438 3.25 -44.359375 C 3.925781 -44.859375 4.679688 -45.109375 5.515625 -45.109375 C 6.429688 -45.109375 7.054688 -44.773438 7.390625 -44.109375 C 7.890625 -43.359375 7.804688 -42.5625 7.140625 -41.71875 C 5.640625 -40.132812 4.21875 -39.175781 2.875 -38.84375 C 1.957031 -38.675781 1.414062 -38.007812 1.25 -36.84375 C 1.082031 -35.414062 1.207031 -34.242188 1.625 -33.328125 C 2.125 -32.078125 2.921875 -31.367188 4.015625 -31.203125 C 7.097656 -30.867188 11.273438 -33.332031 16.546875 -38.59375 L 17.671875 -39.71875 C 17.921875 -39.71875 18.085938 -39.675781 18.171875 -39.59375 C 18.253906 -39.425781 18.296875 -39.300781 18.296875 -39.21875 C 18.296875 -38.96875 18.210938 -38.757812 18.046875 -38.59375 C 16.203125 -36.414062 13.835938 -34.410156 10.953125 -32.578125 C 8.078125 -30.742188 5.765625 -29.867188 4.015625 -29.953125 Z M 2.25 -40.46875 C 4.007812 -41.300781 5.179688 -42.140625 5.765625 -42.984375 C 5.929688 -43.066406 5.929688 -43.191406 5.765625 -43.359375 C 5.765625 -43.523438 5.640625 -43.609375 5.390625 -43.609375 C 4.890625 -43.773438 4.429688 -43.648438 4.015625 -43.234375 C 3.085938 -42.472656 2.5 -41.550781 2.25 -40.46875 Z M 5.890625 -53.625 C 5.804688 -53.625 5.679688 -53.707031 5.515625 -53.875 L 5.515625 -54 C 6.515625 -55.925781 7.804688 -57.554688 9.390625 -58.890625 C 9.472656 -58.972656 9.578125 -58.992188 9.703125 -58.953125 C 9.835938 -58.910156 9.945312 -58.847656 10.03125 -58.765625 L 10.15625 -58.265625 C 8.8125 -56.171875 7.472656 -54.625 6.140625 -53.625 Z M 5.890625 -53.625 "/></g></g></g><g fill="#060606" fill-opacity="1"><g transform="translate(225.261949, 236.999984)"><g><path d="M 12.53125 -26.0625 C 8.519531 -26.0625 5.472656 -27.898438 3.390625 -31.578125 C 3.296875 -31.910156 3.144531 -32.367188 2.9375 -32.953125 C 2.726562 -33.535156 2.539062 -33.953125 2.375 -34.203125 C 0.789062 -37.378906 0.707031 -43.726562 2.125 -53.25 C 3.46875 -62.6875 6.101562 -71.875 10.03125 -80.8125 C 11.613281 -84.40625 13.320312 -87.457031 15.15625 -89.96875 C 15.988281 -91.132812 17.203125 -92.46875 18.796875 -93.96875 C 19.796875 -94.800781 20.921875 -95.554688 22.171875 -96.234375 C 23.765625 -96.898438 25.3125 -96.894531 26.8125 -96.21875 C 28.3125 -95.550781 29.359375 -94.425781 29.953125 -92.84375 C 30.453125 -91.507812 30.703125 -89.796875 30.703125 -87.703125 C 30.617188 -84.617188 29.945312 -81.363281 28.6875 -77.9375 C 27.351562 -74.34375 25.054688 -69.707031 21.796875 -64.03125 C 17.703125 -56.925781 12.566406 -49.363281 6.390625 -41.34375 C 6.140625 -41.175781 5.847656 -40.84375 5.515625 -40.34375 C 5.179688 -39.84375 4.929688 -39.507812 4.765625 -39.34375 C 4.097656 -38.59375 3.890625 -37.757812 4.140625 -36.84375 C 4.972656 -34.164062 5.554688 -32.535156 5.890625 -31.953125 C 7.722656 -28.773438 10.476562 -27.3125 14.15625 -27.5625 C 17.664062 -27.976562 21.507812 -31.40625 25.6875 -37.84375 C 25.851562 -38.257812 26.1875 -38.800781 26.6875 -39.46875 C 26.769531 -39.550781 26.894531 -39.59375 27.0625 -39.59375 C 27.3125 -39.507812 27.4375 -39.300781 27.4375 -38.96875 C 27.1875 -38.46875 27.0625 -38.21875 27.0625 -38.21875 C 22.632812 -30.363281 17.789062 -26.3125 12.53125 -26.0625 Z M 4.015625 -40.59375 C 4.347656 -40.757812 4.929688 -41.382812 5.765625 -42.46875 C 6.429688 -43.476562 7.703125 -45.273438 9.578125 -47.859375 C 11.460938 -50.453125 12.90625 -52.457031 13.90625 -53.875 C 18.664062 -60.976562 22.425781 -67.367188 25.1875 -73.046875 C 27.351562 -77.304688 28.726562 -81.484375 29.3125 -85.578125 C 29.65625 -88.421875 29.53125 -90.632812 28.9375 -92.21875 C 28.4375 -93.632812 27.5625 -94.570312 26.3125 -95.03125 C 25.0625 -95.5 23.765625 -95.3125 22.421875 -94.46875 C 21.835938 -94.050781 21.046875 -93.34375 20.046875 -92.34375 C 17.796875 -90 15.789062 -87.117188 14.03125 -83.703125 C 11.28125 -78.265625 8.984375 -72.207031 7.140625 -65.53125 C 5.054688 -58.175781 3.890625 -50.53125 3.640625 -42.59375 C 3.640625 -41.59375 3.765625 -40.925781 4.015625 -40.59375 Z M 4.015625 -40.59375 "/></g></g></g><g fill="#060606" fill-opacity="1"><g transform="translate(249.694843, 236.999984)"><g><path d="M 3.890625 -45.359375 C 3.640625 -45.359375 3.445312 -45.398438 3.3125 -45.484375 C 3.1875 -45.566406 3.164062 -45.691406 3.25 -45.859375 C 3.425781 -47.359375 3.847656 -48.613281 4.515625 -49.625 C 4.515625 -49.707031 4.722656 -49.75 5.140625 -49.75 C 5.222656 -49.75 5.390625 -49.617188 5.640625 -49.359375 C 5.722656 -49.191406 5.765625 -48.941406 5.765625 -48.609375 C 5.347656 -47.109375 5.054688 -46.234375 4.890625 -45.984375 C 4.640625 -45.566406 4.304688 -45.359375 3.890625 -45.359375 Z M 3.515625 -32.203125 C 1.585938 -32.785156 0.625 -34.078125 0.625 -36.078125 C 0.625 -37.421875 0.914062 -38.632812 1.5 -39.71875 C 1.75 -40.21875 2.164062 -40.425781 2.75 -40.34375 C 3.34375 -40.175781 3.640625 -39.800781 3.640625 -39.21875 L 3.640625 -37.84375 C 3.640625 -37.507812 3.597656 -37.21875 3.515625 -36.96875 L 3.515625 -36.59375 C 3.429688 -35.664062 3.660156 -34.929688 4.203125 -34.390625 C 4.742188 -33.847656 5.472656 -33.578125 6.390625 -33.578125 C 7.054688 -33.578125 7.890625 -33.785156 8.890625 -34.203125 C 10.398438 -34.785156 12.113281 -35.832031 14.03125 -37.34375 L 17.046875 -39.59375 C 17.460938 -39.84375 17.753906 -39.925781 17.921875 -39.84375 C 18.085938 -39.84375 18.171875 -39.71875 18.171875 -39.46875 C 18.171875 -39.21875 18.085938 -39.09375 17.921875 -39.09375 C 14.160156 -36 11.066406 -33.867188 8.640625 -32.703125 C 6.890625 -31.867188 5.179688 -31.703125 3.515625 -32.203125 Z M 3.515625 -32.203125 "/></g></g></g><g fill="#060606" fill-opacity="1"><g transform="translate(265.356952, 236.999984)"><g><path d="M 14.90625 -34.453125 C 13.070312 -33.953125 12.03125 -34.664062 11.78125 -36.59375 C 11.695312 -37.59375 11.78125 -38.71875 12.03125 -39.96875 C 12.195312 -40.882812 12.238281 -41.46875 12.15625 -41.71875 C 11.988281 -41.71875 11.820312 -41.675781 11.65625 -41.59375 C 11.488281 -41.507812 11.363281 -41.425781 11.28125 -41.34375 C 11.195312 -41.257812 11.09375 -41.15625 10.96875 -41.03125 C 10.84375 -40.90625 10.738281 -40.800781 10.65625 -40.71875 C 8.726562 -39.050781 6.972656 -37.84375 5.390625 -37.09375 C 4.804688 -36.757812 4.222656 -36.460938 3.640625 -36.203125 C 2.796875 -35.953125 2.144531 -36.035156 1.6875 -36.453125 C 1.226562 -36.878906 1.082031 -37.507812 1.25 -38.34375 C 1.25 -38.507812 1.332031 -38.84375 1.5 -39.34375 C 2 -40.507812 2.753906 -41.46875 3.765625 -42.21875 C 5.515625 -43.476562 7.265625 -43.476562 9.015625 -42.21875 L 9.140625 -42.09375 L 9.265625 -42.09375 C 9.859375 -41.675781 10.363281 -41.675781 10.78125 -42.09375 L 13.15625 -44.484375 C 13.570312 -44.816406 13.90625 -44.859375 14.15625 -44.609375 C 14.40625 -44.359375 14.445312 -44.148438 14.28125 -43.984375 C 14.195312 -43.316406 13.988281 -42.3125 13.65625 -40.96875 C 13.238281 -39.382812 13.070312 -37.925781 13.15625 -36.59375 C 13.238281 -35.914062 13.65625 -35.617188 14.40625 -35.703125 C 15.65625 -35.867188 19 -37.25 24.4375 -39.84375 C 24.769531 -39.84375 24.976562 -39.757812 25.0625 -39.59375 C 25.226562 -39.175781 25.019531 -38.800781 24.4375 -38.46875 C 20.09375 -36.289062 16.914062 -34.953125 14.90625 -34.453125 Z M 4.265625 -37.84375 C 5.179688 -38.175781 6.140625 -38.632812 7.140625 -39.21875 C 7.722656 -39.632812 8.054688 -39.96875 8.140625 -40.21875 C 8.222656 -40.382812 8.117188 -40.53125 7.828125 -40.65625 C 7.535156 -40.78125 7.179688 -40.84375 6.765625 -40.84375 C 6.097656 -40.675781 5.597656 -40.507812 5.265625 -40.34375 C 4.265625 -39.59375 3.59375 -38.800781 3.25 -37.96875 C 3.675781 -37.632812 4.015625 -37.59375 4.265625 -37.84375 Z M 4.265625 -37.84375 "/></g></g></g><g clip-path="url(#3cbc4caab4)"><path fill="#ffffff" d="M 64.332031 224.683594 L 310.648438 224.683594 L 310.648438 248.117188 L 64.332031 248.117188 Z M 64.332031 224.683594 " fill-opacity="1" fill-rule="nonzero"/></g><g fill="#060606" fill-opacity="1"><g transform="translate(66.345446, 239.025424)"><g/></g></g><g fill="#060606" fill-opacity="1"><g transform="translate(73.71654, 239.025424)"><g><path d="M 1.28125 -5.46875 C 1.9375 -6.09375 2.738281 -6.40625 3.6875 -6.40625 C 4.644531 -6.40625 5.445312 -6.09375 6.09375 -5.46875 C 6.738281 -4.851562 7.0625 -4.09375 7.0625 -3.1875 C 7.0625 -2.28125 6.738281 -1.515625 6.09375 -0.890625 C 5.445312 -0.265625 4.644531 0.046875 3.6875 0.046875 C 2.738281 0.046875 1.9375 -0.265625 1.28125 -0.890625 C 0.632812 -1.515625 0.3125 -2.28125 0.3125 -3.1875 C 0.3125 -4.09375 0.632812 -4.851562 1.28125 -5.46875 Z M 3.703125 -5.4375 C 3.066406 -5.4375 2.523438 -5.21875 2.078125 -4.78125 C 1.628906 -4.351562 1.40625 -3.820312 1.40625 -3.1875 C 1.40625 -2.550781 1.628906 -2.015625 2.078125 -1.578125 C 2.535156 -1.140625 3.078125 -0.921875 3.703125 -0.921875 C 4.328125 -0.921875 4.859375 -1.140625 5.296875 -1.578125 C 5.742188 -2.015625 5.96875 -2.550781 5.96875 -3.1875 C 5.96875 -3.820312 5.742188 -4.351562 5.296875 -4.78125 C 4.859375 -5.21875 4.328125 -5.4375 3.703125 -5.4375 Z M 3.703125 -5.4375 "/></g></g></g><g fill="#060606" fill-opacity="1"><g transform="translate(86.105014, 239.025424)"><g><path d="M 2.9375 -6.421875 C 3.757812 -6.421875 4.503906 -6.203125 5.171875 -5.765625 L 4.71875 -4.8125 C 4.070312 -5.207031 3.445312 -5.40625 2.84375 -5.40625 C 2.53125 -5.40625 2.28125 -5.347656 2.09375 -5.234375 C 1.90625 -5.117188 1.8125 -4.953125 1.8125 -4.734375 C 1.8125 -4.523438 1.894531 -4.347656 2.0625 -4.203125 C 2.238281 -4.054688 2.453125 -3.945312 2.703125 -3.875 C 2.960938 -3.800781 3.238281 -3.710938 3.53125 -3.609375 C 3.832031 -3.503906 4.109375 -3.390625 4.359375 -3.265625 C 4.617188 -3.148438 4.832031 -2.96875 5 -2.71875 C 5.164062 -2.46875 5.25 -2.160156 5.25 -1.796875 C 5.25 -1.242188 5.023438 -0.800781 4.578125 -0.46875 C 4.128906 -0.132812 3.550781 0.03125 2.84375 0.03125 C 2.351562 0.03125 1.878906 -0.0546875 1.421875 -0.234375 C 0.972656 -0.421875 0.578125 -0.664062 0.234375 -0.96875 L 0.703125 -1.90625 C 1.023438 -1.601562 1.378906 -1.367188 1.765625 -1.203125 C 2.148438 -1.046875 2.515625 -0.96875 2.859375 -0.96875 C 3.234375 -0.96875 3.523438 -1.035156 3.734375 -1.171875 C 3.941406 -1.316406 4.046875 -1.507812 4.046875 -1.75 C 4.046875 -1.96875 3.960938 -2.148438 3.796875 -2.296875 C 3.628906 -2.441406 3.414062 -2.550781 3.15625 -2.625 C 2.90625 -2.695312 2.628906 -2.78125 2.328125 -2.875 C 2.035156 -2.976562 1.757812 -3.085938 1.5 -3.203125 C 1.25 -3.316406 1.035156 -3.5 0.859375 -3.75 C 0.691406 -4 0.609375 -4.296875 0.609375 -4.640625 C 0.609375 -5.179688 0.820312 -5.613281 1.25 -5.9375 C 1.675781 -6.257812 2.238281 -6.421875 2.9375 -6.421875 Z M 2.9375 -6.421875 "/></g></g></g><g fill="#060606" fill-opacity="1"><g transform="translate(96.78167, 239.025424)"><g><path d="M 5.390625 -5.40625 L 1.90625 -5.40625 L 1.90625 -3.6875 L 5.03125 -3.6875 L 5.03125 -2.71875 L 1.90625 -2.71875 L 1.90625 -0.96875 L 5.5 -0.96875 L 5.5 0 L 0.84375 0 L 0.84375 -6.375 L 5.390625 -6.375 Z M 5.390625 -5.40625 "/></g></g></g><g fill="#060606" fill-opacity="1"><g transform="translate(107.767912, 239.025424)"><g><path d="M 5.671875 -5.609375 L 1.796875 -0.96875 L 5.71875 -0.96875 L 5.71875 0 L 0.34375 0 L 0.34375 -0.78125 L 4.234375 -5.40625 L 0.453125 -5.40625 L 0.453125 -6.375 L 5.671875 -6.375 Z M 5.671875 -5.609375 "/></g></g></g><g fill="#060606" fill-opacity="1"><g transform="translate(118.845214, 239.025424)"><g/></g></g><g fill="#060606" fill-opacity="1"><g transform="translate(126.207512, 239.025424)"><g><path d="M 1.90625 -0.96875 L 4.671875 -0.96875 L 4.671875 0 L 0.84375 0 L 0.84375 -6.375 L 1.90625 -6.375 Z M 1.90625 -0.96875 "/></g></g></g><g fill="#060606" fill-opacity="1"><g transform="translate(136.082899, 239.025424)"><g><path d="M 1 -6.375 C 1.144531 -6.375 1.269531 -6.320312 1.375 -6.21875 C 1.488281 -6.113281 1.546875 -5.972656 1.546875 -5.796875 C 1.546875 -5.640625 1.492188 -5.476562 1.390625 -5.3125 L 0.859375 -4.53125 L 0.328125 -4.53125 L 0.671875 -5.3125 C 0.503906 -5.425781 0.421875 -5.585938 0.421875 -5.796875 C 0.421875 -5.960938 0.472656 -6.097656 0.578125 -6.203125 C 0.691406 -6.316406 0.832031 -6.375 1 -6.375 Z M 1 -6.375 "/></g></g></g><g fill="#060606" fill-opacity="1"><g transform="translate(143.044563, 239.025424)"><g><path d="M 4.5625 -7.96875 L 3.453125 -7.0625 L 2.515625 -7.0625 L 3.484375 -8.421875 Z M 5.390625 -5.40625 L 1.90625 -5.40625 L 1.90625 -3.6875 L 5.03125 -3.6875 L 5.03125 -2.71875 L 1.90625 -2.71875 L 1.90625 -0.96875 L 5.5 -0.96875 L 5.5 0 L 0.84375 0 L 0.84375 -6.375 L 5.390625 -6.375 Z M 5.390625 -5.40625 "/></g></g></g><g fill="#060606" fill-opacity="1"><g transform="translate(154.030804, 239.025424)"><g><path d="M 1.90625 -0.96875 L 4.671875 -0.96875 L 4.671875 0 L 0.84375 0 L 0.84375 -6.375 L 1.90625 -6.375 Z M 1.90625 -0.96875 "/></g></g></g><g fill="#060606" fill-opacity="1"><g transform="translate(163.906191, 239.025424)"><g><path d="M 4.5625 -7.96875 L 3.453125 -7.0625 L 2.515625 -7.0625 L 3.484375 -8.421875 Z M 5.390625 -5.40625 L 1.90625 -5.40625 L 1.90625 -3.6875 L 5.03125 -3.6875 L 5.03125 -2.71875 L 1.90625 -2.71875 L 1.90625 -0.96875 L 5.5 -0.96875 L 5.5 0 L 0.84375 0 L 0.84375 -6.375 L 5.390625 -6.375 Z M 5.390625 -5.40625 "/></g></g></g><g fill="#060606" fill-opacity="1"><g transform="translate(174.892432, 239.025424)"><g><path d="M 5.203125 -3.140625 L 6.140625 -3.140625 L 6.140625 -0.78125 C 5.804688 -0.53125 5.414062 -0.328125 4.96875 -0.171875 C 4.53125 -0.0234375 4.09375 0.046875 3.65625 0.046875 C 2.71875 0.046875 1.925781 -0.265625 1.28125 -0.890625 C 0.632812 -1.515625 0.3125 -2.28125 0.3125 -3.1875 C 0.3125 -4.09375 0.640625 -4.851562 1.296875 -5.46875 C 1.953125 -6.09375 2.757812 -6.40625 3.71875 -6.40625 C 4.175781 -6.40625 4.617188 -6.320312 5.046875 -6.15625 C 5.484375 -6 5.859375 -5.785156 6.171875 -5.515625 L 5.5625 -4.71875 C 5.039062 -5.207031 4.425781 -5.453125 3.71875 -5.453125 C 3.070312 -5.453125 2.523438 -5.234375 2.078125 -4.796875 C 1.628906 -4.359375 1.40625 -3.820312 1.40625 -3.1875 C 1.40625 -2.550781 1.628906 -2.015625 2.078125 -1.578125 C 2.535156 -1.140625 3.085938 -0.921875 3.734375 -0.921875 C 4.222656 -0.921875 4.710938 -1.066406 5.203125 -1.359375 Z M 5.203125 -3.140625 "/></g></g></g><g fill="#060606" fill-opacity="1"><g transform="translate(186.725474, 239.025424)"><g><path d="M 4.953125 -1.4375 L 1.734375 -1.4375 L 1.125 0 L 0.015625 0 L 2.828125 -6.375 L 3.921875 -6.375 L 6.71875 0 L 5.5625 0 Z M 4.546875 -2.390625 L 3.34375 -5.234375 L 2.140625 -2.390625 Z M 4.546875 -2.390625 "/></g></g></g><g fill="#060606" fill-opacity="1"><g transform="translate(198.458356, 239.025424)"><g><path d="M 6.375 0 L 5.3125 0 L 1.90625 -4.578125 L 1.90625 0 L 0.84375 0 L 0.84375 -6.375 L 1.890625 -6.375 L 5.3125 -1.796875 L 5.3125 -6.375 L 6.375 -6.375 Z M 6.375 0 "/></g></g></g><g fill="#060606" fill-opacity="1"><g transform="translate(210.682923, 239.025424)"><g><path d="M 3.65625 -6.40625 C 4.113281 -6.40625 4.554688 -6.316406 4.984375 -6.140625 C 5.410156 -5.972656 5.773438 -5.734375 6.078125 -5.421875 L 5.453125 -4.640625 C 5.222656 -4.890625 4.945312 -5.085938 4.625 -5.234375 C 4.3125 -5.378906 4 -5.453125 3.6875 -5.453125 C 3.039062 -5.453125 2.5 -5.234375 2.0625 -4.796875 C 1.625 -4.359375 1.40625 -3.828125 1.40625 -3.203125 C 1.40625 -2.578125 1.625 -2.046875 2.0625 -1.609375 C 2.5 -1.171875 3.039062 -0.953125 3.6875 -0.953125 C 4.34375 -0.953125 4.929688 -1.207031 5.453125 -1.71875 L 6.09375 -1 C 5.769531 -0.675781 5.390625 -0.421875 4.953125 -0.234375 C 4.515625 -0.046875 4.070312 0.046875 3.625 0.046875 C 2.6875 0.046875 1.898438 -0.265625 1.265625 -0.890625 C 0.628906 -1.515625 0.3125 -2.285156 0.3125 -3.203125 C 0.3125 -4.097656 0.632812 -4.851562 1.28125 -5.46875 C 1.925781 -6.09375 2.71875 -6.40625 3.65625 -6.40625 Z M 3.65625 -6.40625 "/></g></g></g><g fill="#060606" fill-opacity="1"><g transform="translate(222.042488, 239.025424)"><g><path d="M 5.390625 -5.40625 L 1.90625 -5.40625 L 1.90625 -3.6875 L 5.03125 -3.6875 L 5.03125 -2.71875 L 1.90625 -2.71875 L 1.90625 -0.96875 L 5.5 -0.96875 L 5.5 0 L 0.84375 0 L 0.84375 -6.375 L 5.390625 -6.375 Z M 5.390625 -5.40625 "/></g></g></g><g fill="#060606" fill-opacity="1"><g transform="translate(233.028724, 239.025424)"><g/></g></g><g fill="#060606" fill-opacity="1"><g transform="translate(240.391017, 239.025424)"><g><path d="M 5.390625 -5.40625 L 1.90625 -5.40625 L 1.90625 -3.6875 L 5.03125 -3.6875 L 5.03125 -2.71875 L 1.90625 -2.71875 L 1.90625 -0.96875 L 5.5 -0.96875 L 5.5 0 L 0.84375 0 L 0.84375 -6.375 L 5.390625 -6.375 Z M 5.390625 -5.40625 "/></g></g></g><g fill="#060606" fill-opacity="1"><g transform="translate(251.377252, 239.025424)"><g><path d="M 6.375 0 L 5.3125 0 L 1.90625 -4.578125 L 1.90625 0 L 0.84375 0 L 0.84375 -6.375 L 1.890625 -6.375 L 5.3125 -1.796875 L 5.3125 -6.375 L 6.375 -6.375 Z M 6.375 0 "/></g></g></g><g fill="#060606" fill-opacity="1"><g transform="translate(263.601819, 239.025424)"><g/></g></g><g fill="#060606" fill-opacity="1"><g transform="translate(270.964123, 239.025424)"><g><path d="M 3.65625 -6.40625 C 4.113281 -6.40625 4.554688 -6.316406 4.984375 -6.140625 C 5.410156 -5.972656 5.773438 -5.734375 6.078125 -5.421875 L 5.453125 -4.640625 C 5.222656 -4.890625 4.945312 -5.085938 4.625 -5.234375 C 4.3125 -5.378906 4 -5.453125 3.6875 -5.453125 C 3.039062 -5.453125 2.5 -5.234375 2.0625 -4.796875 C 1.625 -4.359375 1.40625 -3.828125 1.40625 -3.203125 C 1.40625 -2.578125 1.625 -2.046875 2.0625 -1.609375 C 2.5 -1.171875 3.039062 -0.953125 3.6875 -0.953125 C 4.34375 -0.953125 4.929688 -1.207031 5.453125 -1.71875 L 6.09375 -1 C 5.769531 -0.675781 5.390625 -0.421875 4.953125 -0.234375 C 4.515625 -0.046875 4.070312 0.046875 3.625 0.046875 C 2.6875 0.046875 1.898438 -0.265625 1.265625 -0.890625 C 0.628906 -1.515625 0.3125 -2.285156 0.3125 -3.203125 C 0.3125 -4.097656 0.632812 -4.851562 1.28125 -5.46875 C 1.925781 -6.09375 2.71875 -6.40625 3.65625 -6.40625 Z M 3.65625 -6.40625 "/></g></g></g><g fill="#060606" fill-opacity="1"><g transform="translate(282.323688, 239.025424)"><g><path d="M 6.265625 -6.375 L 6.265625 -2.640625 C 6.265625 -1.804688 6.015625 -1.148438 5.515625 -0.671875 C 5.023438 -0.191406 4.347656 0.046875 3.484375 0.046875 C 2.628906 0.046875 1.953125 -0.191406 1.453125 -0.671875 C 0.953125 -1.148438 0.703125 -1.804688 0.703125 -2.640625 L 0.703125 -6.375 L 1.78125 -6.375 L 1.78125 -2.640625 C 1.78125 -2.109375 1.929688 -1.6875 2.234375 -1.375 C 2.546875 -1.070312 2.96875 -0.921875 3.5 -0.921875 C 4.019531 -0.921875 4.429688 -1.070312 4.734375 -1.375 C 5.035156 -1.675781 5.1875 -2.097656 5.1875 -2.640625 L 5.1875 -6.375 Z M 6.265625 -6.375 "/></g></g></g><g fill="#060606" fill-opacity="1"><g transform="translate(294.293315, 239.025424)"><g><path d="M 1.90625 0 L 0.84375 0 L 0.84375 -6.375 L 1.90625 -6.375 Z M 1.90625 0 "/></g></g></g><g fill="#060606" fill-opacity="1"><g transform="translate(302.056254, 239.025424)"><g><path d="M 4.875 0 L 3.71875 -1.9375 C 3.65625 -1.925781 3.554688 -1.921875 3.421875 -1.921875 L 1.90625 -1.921875 L 1.90625 0 L 0.84375 0 L 0.84375 -6.375 L 3.421875 -6.375 C 4.234375 -6.375 4.863281 -6.179688 5.3125 -5.796875 C 5.769531 -5.421875 6 -4.890625 6 -4.203125 C 6 -3.691406 5.882812 -3.257812 5.65625 -2.90625 C 5.425781 -2.550781 5.097656 -2.289062 4.671875 -2.125 L 6.109375 0 Z M 1.90625 -2.890625 L 3.421875 -2.890625 C 4.453125 -2.890625 4.96875 -3.316406 4.96875 -4.171875 C 4.96875 -4.992188 4.453125 -5.40625 3.421875 -5.40625 L 1.90625 -5.40625 Z M 1.90625 -2.890625 "/></g></g></g><g fill="#060606" fill-opacity="1"><g transform="translate(313.65793, 239.025424)"><g/></g></g></svg>